<svg width="23" height="24" viewBox="0 0 23 24" fill="none" xmlns="http://www.w3.org/2000/svg">
<path d="M0.585786 19.8465C-0.195262 20.6276 -0.195262 21.8939 0.585786 22.675C1.36684 23.456 2.63316 23.456 3.41421 22.675L0.585786 19.8465ZM23 2.26074C23 1.15617 22.1046 0.260743 21 0.260744L3 0.260743C1.89543 0.260743 0.999999 1.15617 0.999999 2.26074C0.999999 3.36531 1.89543 4.26074 3 4.26074L19 4.26074L19 20.2607C19 21.3653 19.8954 22.2607 21 22.2607C22.1046 22.2607 23 21.3653 23 20.2607L23 2.26074ZM3.41421 22.675L22.4142 3.67496L19.5858 0.84653L0.585786 19.8465L3.41421 22.675Z" fill="white"/>
</svg>
