<svg width="1440" height="823" viewBox="0 0 1440 823" fill="none" xmlns="http://www.w3.org/2000/svg">
<path d="M1452.02 669.201C1436.27 740.664 1187.58 828.66 1026.04 710.986C864.5 593.312 461.247 491.962 476.999 420.5C492.751 349.038 771 418.5 1083.08 452.198C1395.16 485.897 1467.77 597.739 1452.02 669.201Z" fill="url(#paint0_linear_64_2)"/>
<path d="M962.5 651.5C1004 806 801.5 676.152 272.958 429.864C-255.584 183.575 -70.8997 204.187 -39.9914 137.857C-9.08311 71.527 238.274 158.823 384.887 189.662C531.5 220.5 921 497 962.5 651.5Z" fill="url(#paint1_linear_64_2)"/>
<defs>
<linearGradient id="paint0_linear_64_2" x1="1149.03" y1="292.38" x2="1049.13" y2="641.954" gradientUnits="userSpaceOnUse">
<stop stop-color="#36A112"/>
<stop offset="1" stop-opacity="0"/>
</linearGradient>
<linearGradient id="paint1_linear_64_2" x1="484" y1="48.0001" x2="310.5" y2="367.5" gradientUnits="userSpaceOnUse">
<stop stop-color="#36A112"/>
<stop offset="0.0001" stop-color="#36A112" stop-opacity="0.995"/>
<stop offset="1" stop-opacity="0"/>
</linearGradient>
</defs>
</svg>
