<svg width="52" height="52" viewBox="0 0 52 52" fill="none" xmlns="http://www.w3.org/2000/svg">
<path d="M20.4215 1.22722C20.3587 0.402018 21.5288 0.17193 21.7831 0.95947L23.916 7.56636C26.6701 16.0976 34.9113 21.6303 43.8501 20.9491L50.7727 20.4216C51.598 20.3588 51.828 21.5289 51.0404 21.7832L44.4335 23.9161C35.9023 26.6702 30.3696 34.9114 31.0508 43.8502L31.5784 50.7727C31.6412 51.598 30.4711 51.8281 30.2167 51.0405L28.0839 44.4336C25.3298 35.9024 17.0886 30.3697 8.14969 31.0509L1.22714 31.5785C0.401935 31.6413 0.171847 30.4712 0.959388 30.2168L7.56627 28.084C16.0975 25.3299 21.6302 17.0887 20.949 8.14978L20.4215 1.22722Z" fill="white"/>
</svg>
