<svg width="510" height="16" viewBox="0 0 510 16" fill="none" xmlns="http://www.w3.org/2000/svg">
<path d="M508.913 15.521C479.692 13.9544 450.478 12.2646 421.27 10.8633C403.41 10.0156 385.532 9.49619 367.672 9.03273C351.256 8.60552 334.836 8.26041 318.422 8.19014C291.803 8.0805 265.148 7.84545 238.605 8.31626C167.51 9.55507 96.4817 11.1405 25.4199 12.5595C20.2677 12.6676 14.8347 13.2546 10.0359 12.3249C6.43703 11.6241 2.12402 9.16959 0.861616 6.9335C-1.0996 3.45223 3.01751 2.02605 8.29322 1.99324C38.2906 1.76249 68.2931 1.43597 98.3101 1.23372C154.282 0.844722 210.238 0.345067 266.236 0.245719C290.992 0.200572 315.847 0.69597 340.637 1.59962C349.02 1.91184 357.402 2.25144 365.808 2.53743C373.025 2.78712 380.426 4.76218 387.382 4.3254C397.753 3.67367 407.596 6.89135 417.409 6.31954C430.593 5.55786 443.052 8.38052 455.882 9.05465C469.369 9.75033 482.876 10.5019 496.347 11.4987C500.732 11.8298 505.029 12.9934 509.367 13.7887C509.23 14.3578 509.092 14.9405 508.955 15.5233L508.913 15.521Z" fill="#36A112"/>
</svg>
